<svg xmlns="http://www.w3.org/2000/svg" width="100" height="100"><path fill="#E2E2E3" d="M34.615 37.248H22.629l-2.155 9.292H8.624L21.822 2.773h14.004L49.024 46.54H36.77l-2.155-9.292zm-2.088-8.954l-.672-3.031c-.943-4.172-2.088-9.493-3.165-13.87h-.269c-.982 4.629-1.992 9.253-3.03 13.87l-.673 3.031h7.809z"/><path fill="#66B245" d="M76.221 46.542l-7.542-14.679h-4.176v14.679h-11.58V2.775h16.293c9.429 0 17.507 3.232 17.507 14.141 0 6.26-2.827 10.371-7.068 12.66l9.492 16.967H76.221zM64.505 22.703h3.904c4.579 0 7.003-2.017 7.003-5.79 0-3.772-2.424-4.982-7.003-4.982h-3.904v10.772zM12.527 53.724h11.38L27.61 68l1.212 5.655h.203L30.236 68l3.501-14.276h11.38v43.768h-9.29V87.189c0-5.188.943-17.102 1.479-22.218h-.201l-3.636 12.995-2.29 7.876h-4.981l-2.291-7.876-3.433-12.995h-.269c.541 5.116 1.48 17.032 1.48 22.218v10.303h-9.159V53.724z"/><path fill="#E2E2E3" d="M52.925 53.724h12.321c12.524 0 21.342 6.195 21.342 21.684 0 15.486-8.819 22.086-20.668 22.086H52.923v-43.77h.002zM64.64 88.198c5.587 0 10.101-2.559 10.101-12.79 0-10.235-4.512-12.39-10.101-12.39h-.135v25.18h.135z"/></svg>